<?xml version="1.0" encoding="UTF-8" standalone="no"?>
<svg
   xmlns:dc="http://purl.org/dc/elements/1.1/"
   xmlns:cc="http://creativecommons.org/ns#"
   xmlns:rdf="http://www.w3.org/1999/02/22-rdf-syntax-ns#"
   xmlns:svg="http://www.w3.org/2000/svg"
   xmlns="http://www.w3.org/2000/svg"
   xmlns:sodipodi="http://sodipodi.sourceforge.net/DTD/sodipodi-0.dtd"
   xmlns:inkscape="http://www.inkscape.org/namespaces/inkscape"
   version="1.1"
   width="199.69522"
   height="140.83969"
   id="svg3030"
   sodipodi:docname="Node.js_logo_2015.svg"
   inkscape:version="0.92.3 (2405546, 2018-03-11)">
  <metadata
     id="metadata9">
    <rdf:RDF>
      <cc:Work
         rdf:about="">
        <dc:format>image/svg+xml</dc:format>
        <dc:type
           rdf:resource="http://purl.org/dc/dcmitype/StillImage" />
        <dc:title></dc:title>
      </cc:Work>
    </rdf:RDF>
  </metadata>
  <sodipodi:namedview
     pagecolor="#ffffff"
     bordercolor="#666666"
     borderopacity="1"
     objecttolerance="10"
     gridtolerance="10"
     guidetolerance="10"
     inkscape:pageopacity="0"
     inkscape:pageshadow="2"
     inkscape:window-width="3840"
     inkscape:window-height="2019"
     id="namedview7"
     showgrid="false"
     fit-margin-top="20"
     fit-margin-left="20"
     fit-margin-right="20"
     fit-margin-bottom="20"
     inkscape:zoom="5.6858693"
     inkscape:cx="-19.568407"
     inkscape:cy="68.464468"
     inkscape:window-x="-14"
     inkscape:window-y="-14"
     inkscape:window-maximized="1"
     inkscape:current-layer="layer1" />
  <defs
     id="defs3032" />
  <g
     transform="translate(-141.5991,-508.45647)"
     id="layer1">
    <g
       id="g4543"
       transform="translate(32)">
      <path
         inkscape:connector-curvature="0"
         id="path3730"
         d="m 241.4467,528.45647 c -0.82427,0 -1.63996,0.20801 -2.37814,0.63417 l -39.55644,22.75104 c -1.47889,0.85232 -2.37815,2.49584 -2.37815,4.20126 v 45.66035 c 0,1.70745 0.90021,3.26802 2.37815,4.12212 l 39.55644,22.83018 c 1.47889,0.8541 3.2774,0.8541 4.75629,0 l 39.55645,-22.83018 c 1.47636,-0.8541 2.37815,-2.41467 2.37815,-4.12212 v -45.66035 c 0,-1.70795 -0.89926,-3.34894 -2.37815,-4.20126 l -39.55645,-22.75104 c -0.73818,-0.42616 -1.55388,-0.63417 -2.37815,-0.63417 z"
         style="fill:#83cd29;fill-opacity:1;fill-rule:evenodd;stroke:none" />
      <path
         style="fill:#404137;fill-opacity:1;fill-rule:evenodd;stroke:none;stroke-width:0.70278299"
         d="m 241.4467,543.4421 c -0.57928,0 -1.15254,0.14619 -1.67132,0.44569 l -27.7996,15.98904 c -1.03934,0.599 -1.67132,1.75403 -1.67132,2.95257 v 32.08932 c 0,1.19997 0.63266,2.29671 1.67132,2.89696 l 27.7996,16.04466 c 1.03934,0.60025 2.3033,0.60025 3.34265,0 l 27.7996,-16.04466 c 1.03756,-0.60025 1.67133,-1.69699 1.67133,-2.89696 V 562.8294 c 0,-1.20031 -0.63199,-2.35357 -1.67133,-2.95257 l -27.7996,-15.98904 c -0.51878,-0.2995 -1.09204,-0.44569 -1.67133,-0.44569 z"
         id="path3734"
         inkscape:connector-curvature="0" />
      <circle
         style="fill:#83cd29;fill-opacity:1"
         id="path4547"
         cx="228.93037"
         cy="589.9079"
         r="4.2904935" />
      <circle
         style="fill:#83cd29;fill-opacity:1"
         id="path4547-4"
         cx="241.41882"
         cy="589.89618"
         r="4.2904935" />
      <circle
         style="fill:#83cd29;fill-opacity:1"
         id="path4547-44"
         cx="254.05011"
         cy="589.88214"
         r="4.2904935" />
    </g>
    <path
       style="display:inline;fill:#404137;fill-opacity:1;fill-rule:evenodd;stroke:none;stroke-width:0.59715098"
       d="m 162.42692,579.01814 c 0.0181,0.45046 0.097,0.87365 0.33143,1.2781 l 13.63306,23.62117 c 0.50882,0.88018 1.43556,1.42012 2.46153,1.42012 l 36.59144,-0.0471 c 0.50898,0 0.98158,-0.26258 1.23092,-0.71006 0.26251,-0.43861 0.26251,-0.98299 0,-1.42012 l -8.04745,-14.01176 c -0.52729,-0.88758 -1.4445,-1.46744 -2.46151,-1.46744 h -17.0886 c -1.01931,0 -1.95484,-0.53621 -2.46153,-1.42012 l -3.45552,-5.96445 c -0.25737,-0.44518 -0.37871,-0.92308 -0.37871,-1.42012 0,-0.48682 0.1212,-0.98726 0.37871,-1.42011 l 3.45552,-5.96446 c 0.50669,-0.88389 1.44222,-1.42012 2.46153,-1.42012 h 17.0886 c 1.01701,0 1.94012,-0.58566 2.46151,-1.46745 l 8.04745,-14.01175 c 0.26251,-0.44005 0.26251,-0.98368 0,-1.42011 -0.24934,-0.43495 -0.72194,-0.71005 -1.23092,-0.71005 l -36.59144,-0.0472 c -1.02597,0 -1.95271,0.53397 -2.46153,1.42012 l -13.63306,23.62112 c -0.23449,0.39952 -0.31295,0.82459 -0.33143,1.2781 v 0.28402 z"
       id="path3718"
       inkscape:connector-curvature="0" />
  </g>
</svg>
