<?xml version="1.0" encoding="utf-8"?>
<!-- Generator: Adobe Illustrator 22.1.0, SVG Export Plug-In . SVG Version: 6.00 Build 0)  -->
<svg version="1.1"
	 id="svg3030" inkscape:version="0.92.3 (2405546, 2018-03-11)" sodipodi:docname="Node.js_logo_2015.svg" xmlns:cc="http://creativecommons.org/ns#" xmlns:dc="http://purl.org/dc/elements/1.1/" xmlns:inkscape="http://www.inkscape.org/namespaces/inkscape" xmlns:rdf="http://www.w3.org/1999/02/22-rdf-syntax-ns#" xmlns:sodipodi="http://sodipodi.sourceforge.net/DTD/sodipodi-0.dtd" xmlns:svg="http://www.w3.org/2000/svg"
	 xmlns="http://www.w3.org/2000/svg" xmlns:xlink="http://www.w3.org/1999/xlink" x="0px" y="0px" viewBox="0 0 155.3 100.8"
	 style="enable-background:new 0 0 155.3 100.8;" xml:space="preserve">
<style type="text/css">
	.st0{fill:#83CD29;}
	.st1{fill:#404137;}
</style>
<sodipodi:namedview  bordercolor="#666666" borderopacity="1" fit-margin-bottom="20" fit-margin-left="20" fit-margin-right="20" fit-margin-top="20" gridtolerance="10" guidetolerance="10" id="namedview7" inkscape:current-layer="layer1" inkscape:cx="-19.568407" inkscape:cy="68.464468" inkscape:pageopacity="0" inkscape:pageshadow="2" inkscape:window-height="2019" inkscape:window-maximized="1" inkscape:window-width="3840" inkscape:window-x="-14" inkscape:window-y="-14" inkscape:zoom="5.6858693" objecttolerance="10" pagecolor="#ffffff" showgrid="false">
	</sodipodi:namedview>
<g id="layer1" transform="translate(-141.5991,-508.45647)">
	<g id="g4543" transform="translate(32)">
		<path id="path3730" inkscape:connector-curvature="0" class="st0" d="M220.6,508.5c-0.8,0-1.6,0.2-2.4,0.6l-39.6,22.8
			c-1.5,0.9-2.4,2.5-2.4,4.2v45.7c0,1.7,0.9,3.3,2.4,4.1l39.6,22.8c1.5,0.9,3.3,0.9,4.8,0l39.6-22.8c1.5-0.9,2.4-2.4,2.4-4.1V536
			c0-1.7-0.9-3.3-2.4-4.2L223,509.1C222.3,508.7,221.4,508.5,220.6,508.5L220.6,508.5z"/>
		<path id="path3734" inkscape:connector-curvature="0" class="st1" d="M220.6,523.4c-0.6,0-1.2,0.1-1.7,0.4l-27.8,16
			c-1,0.6-1.7,1.8-1.7,3v32.1c0,1.2,0.6,2.3,1.7,2.9l27.8,16c1,0.6,2.3,0.6,3.3,0l27.8-16c1-0.6,1.7-1.7,1.7-2.9v-32.1
			c0-1.2-0.6-2.4-1.7-3l-27.8-16C221.8,523.6,221.2,523.4,220.6,523.4L220.6,523.4z"/>
		<circle id="path4547" class="st0" cx="208.1" cy="569.9" r="4.3"/>
		<circle id="path4547-4" class="st0" cx="220.6" cy="569.9" r="4.3"/>
		<circle id="path4547-44" class="st0" cx="233.2" cy="569.9" r="4.3"/>
	</g>
	<path id="path3718" inkscape:connector-curvature="0" class="st1" d="M141.6,559c0,0.5,0.1,0.9,0.3,1.3l13.6,23.6
		c0.5,0.9,1.4,1.4,2.5,1.4l36.6,0c0.5,0,1-0.3,1.2-0.7c0.3-0.4,0.3-1,0-1.4l-8-14c-0.5-0.9-1.4-1.5-2.5-1.5h-17.1
		c-1,0-2-0.5-2.5-1.4l-3.5-6c-0.3-0.4-0.4-0.9-0.4-1.4c0-0.5,0.1-1,0.4-1.4l3.5-6c0.5-0.9,1.4-1.4,2.5-1.4h17.1c1,0,1.9-0.6,2.5-1.5
		l8-14c0.3-0.4,0.3-1,0-1.4c-0.2-0.4-0.7-0.7-1.2-0.7l-36.6,0c-1,0-2,0.5-2.5,1.4l-13.6,23.6c-0.2,0.4-0.3,0.8-0.3,1.3L141.6,559
		L141.6,559z"/>
</g>
</svg>
