<?xml version="1.0" standalone="no"?>
<!DOCTYPE svg PUBLIC "-//W3C//DTD SVG 20010904//EN"
 "http://www.w3.org/TR/2001/REC-SVG-20010904/DTD/svg10.dtd">
<svg version="1.0" xmlns="http://www.w3.org/2000/svg"
 width="800.000000pt" height="800.000000pt" viewBox="0 0 800.000000 800.000000"
 preserveAspectRatio="xMidYMid meet">
<metadata>
Created by potrace 1.11, written by Peter Selinger 2001-2013
</metadata>
<g transform="translate(0.000000,800.000000) scale(0.100000,-0.100000)"
fill="#000000" stroke="none">
<path d="M5177 5986 c-101 -54 -162 -89 -169 -100 -4 -6 -8 -7 -8 -2 0 5 -6 4
-12 -2 -11 -8 -141 -85 -244 -143 -68 -38 -79 -44 -92 -56 -7 -7 -17 -13 -22
-13 -5 0 -44 -20 -86 -45 -41 -25 -77 -45 -79 -45 -2 0 -176 -102 -205 -120
-8 -5 -28 -16 -45 -25 -16 -8 -37 -19 -45 -25 -22 -15 -307 -179 -360 -207
-52 -28 -83 -46 -90 -53 -5 -5 -48 -29 -100 -56 -45 -23 -92 -81 -104 -127 -8
-30 -10 -320 -9 -978 1 -514 4 -941 6 -949 16 -60 61 -109 132 -145 16 -9 44
-23 60 -33 46 -27 163 -95 204 -118 20 -12 65 -38 101 -59 36 -20 81 -46 100
-57 62 -36 205 -118 220 -128 8 -5 68 -39 132 -75 65 -36 120 -71 123 -76 4
-5 11 -7 16 -4 5 4 9 2 9 -3 0 -5 8 -12 18 -15 9 -4 40 -20 67 -37 28 -17 57
-33 65 -37 8 -3 26 -14 40 -23 14 -10 57 -34 95 -55 39 -21 77 -43 85 -49 8
-6 26 -17 39 -24 13 -8 38 -22 55 -31 17 -10 58 -33 91 -52 92 -52 167 -46
270 21 17 11 37 23 45 27 8 4 51 28 95 54 103 60 356 206 448 258 132 74 202
117 205 123 2 5 8 8 13 8 9 0 650 366 714 409 53 34 59 41 81 81 18 34 19 76
20 990 1 1042 3 1003 -55 1060 -14 14 -102 69 -196 123 -93 54 -177 102 -185
107 -8 5 -76 44 -150 86 -74 42 -160 91 -190 109 -30 18 -76 44 -102 58 -26
14 -116 66 -200 115 -84 49 -173 100 -198 114 -25 14 -116 66 -203 117 -86 50
-162 91 -167 91 -6 0 -10 4 -10 8 0 13 -71 36 -118 38 -31 2 -59 -6 -105 -30z"/>
<path d="M1445 5048 c-32 -19 -44 -34 -95 -121 -26 -45 -81 -141 -123 -214
-97 -167 -110 -190 -133 -233 -11 -19 -21 -37 -24 -40 -7 -7 -29 -42 -37 -59
-4 -8 -42 -75 -85 -149 -43 -74 -78 -138 -78 -143 0 -5 -4 -9 -9 -9 -8 0 -17
-24 -26 -73 -5 -25 23 -86 94 -204 33 -56 61 -107 61 -113 0 -5 5 -10 10 -10
6 0 10 -5 10 -10 0 -6 38 -76 85 -156 47 -80 85 -148 85 -152 0 -5 5 -13 12
-20 7 -7 26 -37 43 -66 16 -30 54 -96 83 -147 28 -51 52 -96 52 -101 0 -4 5
-8 10 -8 6 0 10 -5 10 -11 0 -15 44 -56 67 -63 10 -3 359 -5 776 -3 747 2 759
2 770 22 6 11 12 25 12 30 1 12 -46 103 -110 210 -26 44 -51 89 -56 100 -5 11
-18 34 -29 50 -10 17 -26 44 -35 60 -59 111 -121 203 -145 217 -25 14 -75 16
-393 16 -288 0 -370 2 -393 13 -24 12 -102 110 -103 131 -1 3 -22 42 -48 85
-69 116 -68 129 28 293 83 144 114 180 157 181 15 0 184 1 376 1 367 0 385 3
413 48 39 62 326 566 332 583 11 29 -6 64 -33 70 -11 3 -356 5 -766 6 -546 0
-750 -3 -765 -11z"/>
</g>
</svg>
